# xmcd
#
# Track frame offsets:
#	150
#	38720
#	67166
#	101165
#	128316
#	157039
#	182091
#
# Disc length: 2839 seconds
#
# Revision: 1
# Processed by: cddbd v1.5.1PL2 Copyright (c) Steve Scherf et al.
# Submitted via: EasyCDDAExtractor 9.0.0.1
#
DISCID=5a0b1507
DTITLE=Black Sabbath - Astoria London 05-12-99 Source 2 Disc 1
DYEAR=1999
DGENRE=Hard Rock
TTITLE0=War Pigs
TTITLE1=NIB
TTITLE2=Fairies Wear Boots
TTITLE3=After Forever
TTITLE4=Electric Funeral
TTITLE5=Sweet Leaf
TTITLE6=Into The Void
EXTD=
EXTT0=
EXTT1=
EXTT2=
EXTT3=
EXTT4=
EXTT5=
EXTT6=
PLAYORDER=
